<?xml version="1.0" encoding="utf-8"?>
<!-- Generator: Adobe Illustrator 23.0.6, SVG Export Plug-In . SVG Version: 6.00 Build 0)  -->
<svg version="1.1"
	 id="svg3680" xmlns:cc="http://creativecommons.org/ns#" xmlns:dc="http://purl.org/dc/elements/1.1/" xmlns:rdf="http://www.w3.org/1999/02/22-rdf-syntax-ns#" xmlns:svg="http://www.w3.org/2000/svg"
	 xmlns="http://www.w3.org/2000/svg" xmlns:xlink="http://www.w3.org/1999/xlink" x="0px" y="0px" viewBox="0 0 682.7 477.5"
	 style="enable-background:new 0 0 682.7 477.5;" xml:space="preserve">
<style type="text/css">
	.st0{fill:none;stroke:#000000;stroke-width:3.7795;}
	.st1{fill:#FF8989;}
	.st2{fill:#FEFF75;}
	.st3{fill:#71FE71;}
	.st4{fill:#9CDEFF;}
	.st5{font-family:'Helvetica';}
	.st6{font-size:18.6667px;}
</style>
<title  id="title4606">Hierarchy of Competence</title>
<path id="path4531" class="st0" d="M672.7,420.6H475.1"/>
<path id="path4529" class="st0" d="M623.1,338.7H427.9"/>
<path id="path4527" class="st0" d="M579,258.6H383.8"/>
<path id="path4519" class="st0" d="M528.6,177.3H332.3"/>
<path id="rect3694" class="st1" d="M63.3,334l-50,86.6h234.9h234.9l-50-86.6L63.3,334z"/>
<path id="rect3696" class="st2" d="M111.3,250.8l-49.7,86.1h373.1L385,250.8H111.3z"/>
<path id="rect3698" class="st3" d="M160.2,166.2l-29.4,51l-22.8,39.5h280.5l-22.8-39.5l-29.4-51H160.2z"/>
<path id="rect3700" class="st4" d="M248.2,13.8l-93.3,161.6h186.6L248.2,13.8z"/>
<path id="path3692" class="st0" d="M483.1,420.6H248.2H13.3l117.4-203.4L248.2,13.8l117.4,203.4L483.1,420.6z"/>
<text transform="matrix(1 0 0 1 404.1122 163.5336)" class="st5 st6">Right Intuition</text>
<text transform="matrix(1 0 0 1 450.6161 244.4181)" class="st5 st6">Right Analysis</text>
<text transform="matrix(1 0 0 1 486.0596 324.9514)" class="st5 st6">Wrong Analysis</text>
<text transform="matrix(1 0 0 1 537.0139 408.2618)" class="st5 st6">Wrong Intuition</text>
<text transform="matrix(1 0 0 1 194.6672 138.495)" class="st5 st6">Unconscious</text>
<text transform="matrix(1 0 0 1 195.1822 161.8283)" class="st5 st6">Competence</text>
<text transform="matrix(1 0 0 1 204.5247 209.5071)" class="st5 st6">Conscious</text>
<text transform="matrix(1 0 0 1 195.1822 232.8405)" class="st5 st6">Competence</text>
<text transform="matrix(1 0 0 1 204.4254 289.6437)" class="st5 st6">Conscious</text>
<text transform="matrix(1 0 0 1 189.3727 312.9771)" class="st5 st6">Incompetence</text>
<text transform="matrix(1 0 0 1 194.567 373.7476)" class="st5 st6">Unconscious</text>
<text transform="matrix(1 0 0 1 189.3716 397.0809)" class="st5 st6">Incompetence</text>
</svg>
